<?xml version="1.0" encoding="UTF-8" standalone="no"?>
<!-- Created with Inkscape (http://www.inkscape.org/) -->

<svg
   xmlns:dc="http://purl.org/dc/elements/1.1/"
   xmlns:cc="http://creativecommons.org/ns#"
   xmlns:rdf="http://www.w3.org/1999/02/22-rdf-syntax-ns#"
   xmlns:svg="http://www.w3.org/2000/svg"
   xmlns="http://www.w3.org/2000/svg"
   xmlns:xlink="http://www.w3.org/1999/xlink"
   xmlns:sodipodi="http://sodipodi.sourceforge.net/DTD/sodipodi-0.dtd"
   xmlns:inkscape="http://www.inkscape.org/namespaces/inkscape"
   width="274.79727"
   height="373.34903"
   id="svg2"
   version="1.1"
   inkscape:version="0.48.5 r10040"
   sodipodi:docname="джава логотип.svg">
  <defs
     id="defs4">
    <linearGradient
       inkscape:collect="always"
       id="linearGradient3856">
      <stop
         style="stop-color:#237cb0;stop-opacity:1;"
         offset="0"
         id="stop3858" />
      <stop
         style="stop-color:#237cb0;stop-opacity:0;"
         offset="1"
         id="stop3860" />
    </linearGradient>
    <linearGradient
       inkscape:collect="always"
       id="linearGradient3848">
      <stop
         style="stop-color:#237cb0;stop-opacity:1;"
         offset="0"
         id="stop3850" />
      <stop
         style="stop-color:#237cb0;stop-opacity:0;"
         offset="1"
         id="stop3852" />
    </linearGradient>
    <linearGradient
       inkscape:collect="always"
       id="linearGradient3840">
      <stop
         style="stop-color:#237cb0;stop-opacity:1;"
         offset="0"
         id="stop3842" />
      <stop
         style="stop-color:#237cb0;stop-opacity:0;"
         offset="1"
         id="stop3844" />
    </linearGradient>
    <linearGradient
       inkscape:collect="always"
       id="linearGradient3832">
      <stop
         style="stop-color:#237cb0;stop-opacity:1;"
         offset="0"
         id="stop3834" />
      <stop
         style="stop-color:#237cb0;stop-opacity:0;"
         offset="1"
         id="stop3836" />
    </linearGradient>
    <linearGradient
       inkscape:collect="always"
       id="linearGradient3824">
      <stop
         style="stop-color:#237cb0;stop-opacity:1;"
         offset="0"
         id="stop3826" />
      <stop
         style="stop-color:#237cb0;stop-opacity:0;"
         offset="1"
         id="stop3828" />
    </linearGradient>
    <linearGradient
       inkscape:collect="always"
       id="linearGradient3816">
      <stop
         style="stop-color:#237cb0;stop-opacity:1;"
         offset="0"
         id="stop3818" />
      <stop
         style="stop-color:#237cb0;stop-opacity:0;"
         offset="1"
         id="stop3820" />
    </linearGradient>
    <linearGradient
       inkscape:collect="always"
       id="linearGradient3808">
      <stop
         style="stop-color:#c4240e;stop-opacity:1;"
         offset="0"
         id="stop3810" />
      <stop
         style="stop-color:#c4240e;stop-opacity:0;"
         offset="1"
         id="stop3812" />
    </linearGradient>
    <linearGradient
       inkscape:collect="always"
       id="linearGradient3800">
      <stop
         style="stop-color:#c4240e;stop-opacity:1;"
         offset="0"
         id="stop3802" />
      <stop
         style="stop-color:#c4240e;stop-opacity:0;"
         offset="1"
         id="stop3804" />
    </linearGradient>
    <inkscape:path-effect
       effect="spiro"
       id="path-effect3002"
       is_visible="true" />
    <linearGradient
       inkscape:collect="always"
       xlink:href="#linearGradient3800"
       id="linearGradient3806"
       x1="882.65709"
       y1="142.35435"
       x2="979.92166"
       y2="142.35435"
       gradientUnits="userSpaceOnUse" />
    <linearGradient
       inkscape:collect="always"
       xlink:href="#linearGradient3808"
       id="linearGradient3814"
       x1="931.4051"
       y1="187.12345"
       x2="1012.1181"
       y2="187.12345"
       gradientUnits="userSpaceOnUse" />
    <linearGradient
       inkscape:collect="always"
       xlink:href="#linearGradient3816"
       id="linearGradient3822"
       x1="824.84593"
       y1="261.87334"
       x2="1006.3119"
       y2="261.87334"
       gradientUnits="userSpaceOnUse" />
    <linearGradient
       inkscape:collect="always"
       xlink:href="#linearGradient3824"
       id="linearGradient3830"
       x1="1014.215"
       y1="278.51447"
       x2="1070.4144"
       y2="278.51447"
       gradientUnits="userSpaceOnUse" />
    <linearGradient
       inkscape:collect="always"
       xlink:href="#linearGradient3832"
       id="linearGradient3838"
       x1="853.55599"
       y1="302.25712"
       x2="995.36941"
       y2="302.25712"
       gradientUnits="userSpaceOnUse" />
    <linearGradient
       inkscape:collect="always"
       xlink:href="#linearGradient3840"
       id="linearGradient3846"
       x1="478.81237"
       y1="54.983005"
       x2="598.36513"
       y2="54.983005"
       gradientUnits="userSpaceOnUse" />
    <linearGradient
       inkscape:collect="always"
       xlink:href="#linearGradient3848"
       id="linearGradient3854"
       x1="795.61712"
       y1="376.00116"
       x2="1053.9832"
       y2="376.00116"
       gradientUnits="userSpaceOnUse" />
    <linearGradient
       inkscape:collect="always"
       xlink:href="#linearGradient3856"
       id="linearGradient3862"
       x1="848.99119"
       y1="396.75167"
       x2="1068.3935"
       y2="396.75167"
       gradientUnits="userSpaceOnUse" />
  </defs>
  <sodipodi:namedview
     id="base"
     pagecolor="#ffffff"
     bordercolor="#666666"
     borderopacity="1.0"
     inkscape:pageopacity="0.0"
     inkscape:pageshadow="2"
     inkscape:zoom="1.5832031"
     inkscape:cx="141.95377"
     inkscape:cy="156.57436"
     inkscape:document-units="px"
     inkscape:current-layer="layer1"
     showgrid="false"
     fit-margin-top="0"
     fit-margin-left="0"
     fit-margin-right="0"
     fit-margin-bottom="0"
     inkscape:window-width="1366"
     inkscape:window-height="746"
     inkscape:window-x="-8"
     inkscape:window-y="-8"
     inkscape:window-maximized="1" />
  <metadata
     id="metadata7">
    <rdf:RDF>
      <cc:Work
         rdf:about="">
        <dc:format>image/svg+xml</dc:format>
        <dc:type
           rdf:resource="http://purl.org/dc/dcmitype/StillImage" />
        <dc:title></dc:title>
      </cc:Work>
    </rdf:RDF>
  </metadata>
  <g
     inkscape:label="Layer 1"
     inkscape:groupmode="layer"
     id="layer1"
     transform="translate(-408.60946,246.61832)">
    <path
       style="fill:url(#linearGradient3806);fill-opacity:1;stroke:#000000;stroke-width:1px;stroke-linecap:butt;stroke-linejoin:miter;stroke-opacity:1"
       d="m 930.77793,243.38534 c 0,0 -13.95195,-22.94142 -21.12499,-36.69067 -7.22005,-13.83936 -8.33304,-17.98144 -6.11947,-29.83018 4.54509,-24.32893 55.74097,-50.47514 66.54795,-74.61438 21.37787,-47.751169 -0.63163,-60.926749 -0.63163,-60.926749 0,0 6.15582,19.479713 -0.44584,34.516714 -20.45332,46.587775 -83.35421,59.387725 -85.79217,100.104065 -1.92413,32.13506 47.56615,67.4412 47.56615,67.4412 z"
       id="path2996"
       inkscape:connector-curvature="0"
       transform="translate(-387.00766,-287.44168)"
       sodipodi:nodetypes="cssscssc" />
    <path
       style="fill:url(#linearGradient3814);fill-opacity:1;stroke:#000000;stroke-width:1px;stroke-linecap:butt;stroke-linejoin:miter;stroke-opacity:1"
       d="m 946.35581,256.36472 c 0,0 24.73423,-10.94932 27.58737,-31.35006 3.64987,-26.09751 -21.10914,-30.87491 -20.49081,-50.38332 0.6357,-20.05668 58.16573,-56.74917 58.16573,-56.74917 0,0 -27.8944,6.06733 -49.65731,20.46838 -20.34466,13.46256 -30.14685,29.7272 -30.05505,44.81166 0.15103,24.82033 23.04087,35.08565 24.17222,49.8562 0.77324,10.09516 -9.72215,23.34631 -9.72215,23.34631 z"
       id="path2998"
       inkscape:connector-curvature="0"
       transform="translate(-387.00766,-287.44168)"
       sodipodi:nodetypes="csscsssc" />
    <path
       style="fill:url(#linearGradient3822);fill-opacity:1;stroke:#000000;stroke-width:1px;stroke-linecap:butt;stroke-linejoin:miter;stroke-opacity:1"
       d="m 885.89157,245.39518 c 0,0 -39.9512,11.50093 -35.95375,16.74864 13.34282,17.51595 155.87408,-2.67978 155.87408,-2.67978 -38.64097,22.33089 -174.93372,25.04961 -180.43876,7.14609 -1.51229,-16.26318 60.51843,-21.21495 60.51843,-21.21495 z"
       id="path3004"
       inkscape:connector-curvature="0"
       transform="translate(-387.00766,-287.44168)"
       sodipodi:nodetypes="csccc" />
    <path
       style="fill:url(#linearGradient3830);fill-opacity:1;stroke:#000000;stroke-width:1px;stroke-linecap:butt;stroke-linejoin:miter;stroke-opacity:1"
       d="m 1022.1367,247.35504 c 0,0 39.3093,-15.46267 47.0564,15.63288 8.0859,32.45523 -54.4781,50.53046 -54.4781,50.53046 0,0 42.4884,-18.8378 39.9507,-45.47742 -2.6638,-27.96322 -32.529,-20.68592 -32.529,-20.68592 z"
       id="path3006"
       inkscape:connector-curvature="0"
       transform="translate(-387.00766,-287.44168)"
       sodipodi:nodetypes="cscsc" />
    <path
       style="fill:url(#linearGradient3838);fill-opacity:1;stroke:#000000;stroke-width:1px;stroke-linecap:butt;stroke-linejoin:miter;stroke-opacity:1"
       d="m 872.93929,287.60176 c 0,0 -8.84034,11.08097 -4.01967,12.05902 50.80674,10.30798 112.55088,-2.23315 112.55088,-2.23315 l 13.39891,9.15593 c 0,0 -49.64036,20.08184 -129.07621,4.24299 -30.07759,-5.99723 7.14609,-23.22479 7.14609,-23.22479 z"
       id="path3008"
       inkscape:connector-curvature="0"
       transform="translate(-387.00766,-287.44168)"
       sodipodi:nodetypes="csccsc" />
    <path
       style="fill:url(#linearGradient3846);fill-opacity:1;stroke:#000000;stroke-width:1px;stroke-linecap:butt;stroke-linejoin:miter;stroke-opacity:1"
       d="m 492.23703,41.301075 c 0,0 -3.96208,8.814437 3.34973,10.272498 54.70055,10.907935 86.86963,-1.786519 86.86963,-1.786519 l 15.40874,9.379245 c 0,0 -60.35949,18.741949 -105.62811,3.573044 -29.08046,-9.744472 1e-5,-21.438268 1e-5,-21.438268 z"
       id="path3008-1"
       inkscape:connector-curvature="0"
       sodipodi:nodetypes="csccsc" />
    <path
       style="fill:url(#linearGradient3854);fill-opacity:1;stroke:#000000;stroke-width:1px;stroke-linecap:butt;stroke-linejoin:miter;stroke-opacity:1"
       d="m 848.15129,355.93622 c 0,0 -31.76612,4.63196 -29.70092,16.30202 1.31533,7.4327 50.81524,12.98608 76.82044,13.84555 51.80928,1.71227 137.84179,-4.83296 152.07759,-18.08854 2.2907,-2.13297 0.8934,-8.93261 0.8934,-8.93261 0,0 6.1104,4.39213 5.1361,7.59272 -4.2374,13.92005 -58.25315,25.14348 -90.21925,27.91441 -55.80425,4.83729 -166.64782,-2.25954 -167.03981,-18.31185 -0.22462,-9.19837 21.63024,-16.2943 37.51696,-18.9818 3.5504,-0.60062 14.51549,-1.3399 14.51549,-1.3399 z"
       id="path3028"
       inkscape:connector-curvature="0"
       transform="translate(-387.00766,-287.44168)"
       sodipodi:nodetypes="cssscssssc" />
    <path
       style="fill:url(#linearGradient3862);fill-opacity:1;stroke:#000000;stroke-width:1px;stroke-linecap:butt;stroke-linejoin:miter;stroke-opacity:1"
       d="m 849.49119,402.38579 c 0,0 65.08321,9.79493 128.85289,3.12642 39.91252,-4.17373 89.54942,-25.68126 89.54942,-25.68126 0,0 -8.6276,16.2634 -24.5647,20.99164 -32.7418,9.71389 -91.90061,16.27757 -154.53413,10.94244 -13.42044,-1.14315 -39.30348,-9.37924 -39.30348,-9.37924 z"
       id="path3030"
       inkscape:connector-curvature="0"
       transform="translate(-387.00766,-287.44168)"
       sodipodi:nodetypes="cscssc" />
  </g>
</svg>
